<svg xmlns="http://www.w3.org/2000/svg" viewBox="179.68 209.16 140.53 83.07"><g transform="translate(179.68337008536335,209.15578120238197)translate(70.2633509625475,41.1452055186089)rotate(0)translate(-70.2633509625475,-41.1452055186089) scale(1.2695863283411333,1.2695863283411333)" opacity="1"><defs class="defs"/><path fill-rule="evenodd" clip-rule="evenodd" fill="#3385D9" d="M0,65.427l23.849-39.062l6.522,4.231L45.895,0l9.674,13.996&#10;&#9;l3.601-3.578l13.947,21.481l9.899-14.323l27.671,47.851l-26.659-40.69l-4.049,17.09l3.712,13.508L59.844,15.46l-0.259,13.608&#10;&#9;l13.531,36.359L47.807,9.113l7.313,30.435L44.882,9.927l-5.623,19.694l1.124-12.859L26.322,63.15l1.688-19.531l-5.851-7.813&#10;&#9;L0,65.427z" class="color c1"/></g></svg>